<mxfile host="app.diagrams.net" agent="Mozilla/5.0 (Windows NT 10.0; Win64; x64) AppleWebKit/537.36 (KHTML, like Gecko) Chrome/139.0.0.0 Safari/537.36" version="28.1.1">
  <diagram id="ReadingBookApp" name="Reading Book Schema">
    <mxGraphModel dx="1500" dy="561" grid="1" gridSize="10" guides="1" tooltips="1" connect="1" arrows="1" fold="1" page="1" pageScale="1" pageWidth="827" pageHeight="1169" math="0" shadow="0">
      <root>
        <mxCell id="0" />
        <mxCell id="1" parent="0" />
        <mxCell id="EqOOCHPDBD_nEyYWf1Lx-20" value="User" style="swimlane;fontStyle=0;childLayout=stackLayout;horizontal=1;startSize=30;horizontalStack=0;resizeParent=1;resizeParentMax=0;resizeLast=0;collapsible=1;marginBottom=0;whiteSpace=wrap;html=1;" parent="1" vertex="1">
          <mxGeometry width="280" height="510" as="geometry" />
        </mxCell>
        <mxCell id="EqOOCHPDBD_nEyYWf1Lx-21" value="+ _id: String (required)" style="text;strokeColor=none;fillColor=none;align=left;verticalAlign=middle;spacingLeft=4;spacingRight=4;overflow=hidden;points=[[0,0.5],[1,0.5]];portConstraint=eastwest;rotatable=0;whiteSpace=wrap;html=1;" parent="EqOOCHPDBD_nEyYWf1Lx-20" vertex="1">
          <mxGeometry y="30" width="280" height="30" as="geometry" />
        </mxCell>
        <mxCell id="EqOOCHPDBD_nEyYWf1Lx-22" value="+ email: String (unique, required)" style="text;strokeColor=none;fillColor=none;align=left;verticalAlign=middle;spacingLeft=4;spacingRight=4;overflow=hidden;points=[[0,0.5],[1,0.5]];portConstraint=eastwest;rotatable=0;whiteSpace=wrap;html=1;" parent="EqOOCHPDBD_nEyYWf1Lx-20" vertex="1">
          <mxGeometry y="60" width="280" height="30" as="geometry" />
        </mxCell>
        <mxCell id="EqOOCHPDBD_nEyYWf1Lx-23" value="+ password: String (hashed, required)" style="text;strokeColor=none;fillColor=none;align=left;verticalAlign=middle;spacingLeft=4;spacingRight=4;overflow=hidden;points=[[0,0.5],[1,0.5]];portConstraint=eastwest;rotatable=0;whiteSpace=wrap;html=1;" parent="EqOOCHPDBD_nEyYWf1Lx-20" vertex="1">
          <mxGeometry y="90" width="280" height="30" as="geometry" />
        </mxCell>
        <mxCell id="EqOOCHPDBD_nEyYWf1Lx-33" value="+ username: String (unique, required)" style="text;strokeColor=none;fillColor=none;align=left;verticalAlign=middle;spacingLeft=4;spacingRight=4;overflow=hidden;points=[[0,0.5],[1,0.5]];portConstraint=eastwest;rotatable=0;whiteSpace=wrap;html=1;" parent="EqOOCHPDBD_nEyYWf1Lx-20" vertex="1">
          <mxGeometry y="120" width="280" height="30" as="geometry" />
        </mxCell>
        <mxCell id="EqOOCHPDBD_nEyYWf1Lx-32" value="+ fullname: String (optional)" style="text;strokeColor=none;fillColor=none;align=left;verticalAlign=middle;spacingLeft=4;spacingRight=4;overflow=hidden;points=[[0,0.5],[1,0.5]];portConstraint=eastwest;rotatable=0;whiteSpace=wrap;html=1;" parent="EqOOCHPDBD_nEyYWf1Lx-20" vertex="1">
          <mxGeometry y="150" width="280" height="30" as="geometry" />
        </mxCell>
        <mxCell id="EqOOCHPDBD_nEyYWf1Lx-31" value="+ avatar: String (url, optional)" style="text;strokeColor=none;fillColor=none;align=left;verticalAlign=middle;spacingLeft=4;spacingRight=4;overflow=hidden;points=[[0,0.5],[1,0.5]];portConstraint=eastwest;rotatable=0;whiteSpace=wrap;html=1;" parent="EqOOCHPDBD_nEyYWf1Lx-20" vertex="1">
          <mxGeometry y="180" width="280" height="30" as="geometry" />
        </mxCell>
        <mxCell id="EqOOCHPDBD_nEyYWf1Lx-30" value="+ preferences: [genreId] (Array)" style="text;strokeColor=none;fillColor=none;align=left;verticalAlign=middle;spacingLeft=4;spacingRight=4;overflow=hidden;points=[[0,0.5],[1,0.5]];portConstraint=eastwest;rotatable=0;whiteSpace=wrap;html=1;" parent="EqOOCHPDBD_nEyYWf1Lx-20" vertex="1">
          <mxGeometry y="210" width="280" height="30" as="geometry" />
        </mxCell>
        <mxCell id="EqOOCHPDBD_nEyYWf1Lx-29" value="+ isActive: Boolean (Default: true)" style="text;strokeColor=none;fillColor=none;align=left;verticalAlign=middle;spacingLeft=4;spacingRight=4;overflow=hidden;points=[[0,0.5],[1,0.5]];portConstraint=eastwest;rotatable=0;whiteSpace=wrap;html=1;" parent="EqOOCHPDBD_nEyYWf1Lx-20" vertex="1">
          <mxGeometry y="240" width="280" height="30" as="geometry" />
        </mxCell>
        <mxCell id="EqOOCHPDBD_nEyYWf1Lx-28" value="+ role: String (&quot;user&quot; | &quot;admin&quot;, Default: &quot;user&quot;)" style="text;strokeColor=none;fillColor=none;align=left;verticalAlign=middle;spacingLeft=4;spacingRight=4;overflow=hidden;points=[[0,0.5],[1,0.5]];portConstraint=eastwest;rotatable=0;whiteSpace=wrap;html=1;" parent="EqOOCHPDBD_nEyYWf1Lx-20" vertex="1">
          <mxGeometry y="270" width="280" height="30" as="geometry" />
        </mxCell>
        <mxCell id="EqOOCHPDBD_nEyYWf1Lx-27" value="+ token: [&lt;div&gt;&lt;span style=&quot;white-space: pre;&quot;&gt;&#x9;&lt;/span&gt;{&lt;br&gt;&lt;/div&gt;&lt;div&gt;&lt;span style=&quot;white-space: pre;&quot;&gt;&#x9;&lt;/span&gt;&lt;span style=&quot;white-space: pre;&quot;&gt;&#x9;&lt;/span&gt;token:String (JWT)&lt;br&gt;&lt;/div&gt;&lt;div&gt;&lt;span style=&quot;white-space: pre;&quot;&gt;&#x9;&lt;/span&gt;&lt;span style=&quot;white-space: pre;&quot;&gt;&#x9;&lt;/span&gt;device: String (optional),&lt;br&gt;&lt;/div&gt;&lt;div&gt;&lt;span style=&quot;white-space: pre;&quot;&gt;&#x9;&lt;/span&gt;&lt;span style=&quot;white-space: pre;&quot;&gt;&#x9;&lt;/span&gt;createrAt: Timestamp,&lt;br&gt;&lt;/div&gt;&lt;div&gt;&lt;span style=&quot;white-space: pre;&quot;&gt;&#x9;&lt;/span&gt;&lt;span style=&quot;white-space: pre;&quot;&gt;&#x9;&lt;/span&gt;expiredAt: Timestamp&lt;br&gt;&lt;/div&gt;&lt;div&gt;&lt;span style=&quot;white-space: pre;&quot;&gt;&#x9;&lt;/span&gt;}&lt;br&gt;&lt;/div&gt;&lt;div&gt;]&lt;br&gt;&lt;/div&gt;" style="text;strokeColor=none;fillColor=none;align=left;verticalAlign=middle;spacingLeft=4;spacingRight=4;overflow=hidden;points=[[0,0.5],[1,0.5]];portConstraint=eastwest;rotatable=0;whiteSpace=wrap;html=1;" parent="EqOOCHPDBD_nEyYWf1Lx-20" vertex="1">
          <mxGeometry y="300" width="280" height="120" as="geometry" />
        </mxCell>
        <mxCell id="EqOOCHPDBD_nEyYWf1Lx-26" value="+ lastLogin: Timestamp (optional)" style="text;strokeColor=none;fillColor=none;align=left;verticalAlign=middle;spacingLeft=4;spacingRight=4;overflow=hidden;points=[[0,0.5],[1,0.5]];portConstraint=eastwest;rotatable=0;whiteSpace=wrap;html=1;" parent="EqOOCHPDBD_nEyYWf1Lx-20" vertex="1">
          <mxGeometry y="420" width="280" height="30" as="geometry" />
        </mxCell>
        <mxCell id="EqOOCHPDBD_nEyYWf1Lx-25" value="+ createdAt: Timestamp (Default: now)" style="text;strokeColor=none;fillColor=none;align=left;verticalAlign=middle;spacingLeft=4;spacingRight=4;overflow=hidden;points=[[0,0.5],[1,0.5]];portConstraint=eastwest;rotatable=0;whiteSpace=wrap;html=1;" parent="EqOOCHPDBD_nEyYWf1Lx-20" vertex="1">
          <mxGeometry y="450" width="280" height="30" as="geometry" />
        </mxCell>
        <mxCell id="EqOOCHPDBD_nEyYWf1Lx-24" value="+ updatedAt: Timestamp (Default: null)" style="text;strokeColor=none;fillColor=none;align=left;verticalAlign=middle;spacingLeft=4;spacingRight=4;overflow=hidden;points=[[0,0.5],[1,0.5]];portConstraint=eastwest;rotatable=0;whiteSpace=wrap;html=1;" parent="EqOOCHPDBD_nEyYWf1Lx-20" vertex="1">
          <mxGeometry y="480" width="280" height="30" as="geometry" />
        </mxCell>
        <mxCell id="EqOOCHPDBD_nEyYWf1Lx-38" value="Genre" style="swimlane;fontStyle=0;childLayout=stackLayout;horizontal=1;startSize=26;horizontalStack=0;resizeParent=1;resizeParentMax=0;resizeLast=0;collapsible=1;marginBottom=0;align=center;fontSize=14;" parent="1" vertex="1">
          <mxGeometry y="560" width="240" height="116" as="geometry" />
        </mxCell>
        <mxCell id="EqOOCHPDBD_nEyYWf1Lx-39" value="+_id: String (required)" style="text;strokeColor=none;fillColor=none;spacingLeft=4;spacingRight=4;overflow=hidden;rotatable=0;points=[[0,0.5],[1,0.5]];portConstraint=eastwest;fontSize=12;whiteSpace=wrap;html=1;" parent="EqOOCHPDBD_nEyYWf1Lx-38" vertex="1">
          <mxGeometry y="26" width="240" height="30" as="geometry" />
        </mxCell>
        <mxCell id="EqOOCHPDBD_nEyYWf1Lx-40" value="+ name: String (required)" style="text;strokeColor=none;fillColor=none;spacingLeft=4;spacingRight=4;overflow=hidden;rotatable=0;points=[[0,0.5],[1,0.5]];portConstraint=eastwest;fontSize=12;whiteSpace=wrap;html=1;" parent="EqOOCHPDBD_nEyYWf1Lx-38" vertex="1">
          <mxGeometry y="56" width="240" height="30" as="geometry" />
        </mxCell>
        <mxCell id="EqOOCHPDBD_nEyYWf1Lx-57" value="+ createdAt: Timestamp (Default: now)" style="text;strokeColor=none;fillColor=none;spacingLeft=4;spacingRight=4;overflow=hidden;rotatable=0;points=[[0,0.5],[1,0.5]];portConstraint=eastwest;fontSize=12;whiteSpace=wrap;html=1;" parent="EqOOCHPDBD_nEyYWf1Lx-38" vertex="1">
          <mxGeometry y="86" width="240" height="30" as="geometry" />
        </mxCell>
        <mxCell id="EqOOCHPDBD_nEyYWf1Lx-42" value="Author" style="swimlane;fontStyle=0;childLayout=stackLayout;horizontal=1;startSize=26;horizontalStack=0;resizeParent=1;resizeParentMax=0;resizeLast=0;collapsible=1;marginBottom=0;align=center;fontSize=14;" parent="1" vertex="1">
          <mxGeometry y="720" width="160" height="86" as="geometry" />
        </mxCell>
        <mxCell id="EqOOCHPDBD_nEyYWf1Lx-43" value="+ _id: String (required)" style="text;strokeColor=none;fillColor=none;spacingLeft=4;spacingRight=4;overflow=hidden;rotatable=0;points=[[0,0.5],[1,0.5]];portConstraint=eastwest;fontSize=12;whiteSpace=wrap;html=1;" parent="EqOOCHPDBD_nEyYWf1Lx-42" vertex="1">
          <mxGeometry y="26" width="160" height="30" as="geometry" />
        </mxCell>
        <mxCell id="EqOOCHPDBD_nEyYWf1Lx-44" value="+ _name: String (required)" style="text;strokeColor=none;fillColor=none;spacingLeft=4;spacingRight=4;overflow=hidden;rotatable=0;points=[[0,0.5],[1,0.5]];portConstraint=eastwest;fontSize=12;whiteSpace=wrap;html=1;" parent="EqOOCHPDBD_nEyYWf1Lx-42" vertex="1">
          <mxGeometry y="56" width="160" height="30" as="geometry" />
        </mxCell>
        <mxCell id="EqOOCHPDBD_nEyYWf1Lx-46" value="Library" style="swimlane;fontStyle=0;childLayout=stackLayout;horizontal=1;startSize=26;horizontalStack=0;resizeParent=1;resizeParentMax=0;resizeLast=0;collapsible=1;marginBottom=0;align=center;fontSize=14;" parent="1" vertex="1">
          <mxGeometry x="427" y="530" width="400" height="326" as="geometry" />
        </mxCell>
        <mxCell id="EqOOCHPDBD_nEyYWf1Lx-47" value="+ _id: String (required)" style="text;strokeColor=none;fillColor=none;spacingLeft=4;spacingRight=4;overflow=hidden;rotatable=0;points=[[0,0.5],[1,0.5]];portConstraint=eastwest;fontSize=12;whiteSpace=wrap;html=1;" parent="EqOOCHPDBD_nEyYWf1Lx-46" vertex="1">
          <mxGeometry y="26" width="400" height="30" as="geometry" />
        </mxCell>
        <mxCell id="EqOOCHPDBD_nEyYWf1Lx-48" value="+ userId: String (required)" style="text;strokeColor=none;fillColor=none;spacingLeft=4;spacingRight=4;overflow=hidden;rotatable=0;points=[[0,0.5],[1,0.5]];portConstraint=eastwest;fontSize=12;whiteSpace=wrap;html=1;" parent="EqOOCHPDBD_nEyYWf1Lx-46" vertex="1">
          <mxGeometry y="56" width="400" height="30" as="geometry" />
        </mxCell>
        <mxCell id="EqOOCHPDBD_nEyYWf1Lx-49" value="+ bookId: String (required)" style="text;strokeColor=none;fillColor=none;spacingLeft=4;spacingRight=4;overflow=hidden;rotatable=0;points=[[0,0.5],[1,0.5]];portConstraint=eastwest;fontSize=12;whiteSpace=wrap;html=1;" parent="EqOOCHPDBD_nEyYWf1Lx-46" vertex="1">
          <mxGeometry y="86" width="400" height="30" as="geometry" />
        </mxCell>
        <mxCell id="EqOOCHPDBD_nEyYWf1Lx-58" value="+ status: String (&quot;reading&quot; | &quot;completed&quot; | &quot;wishlist&quot;, Default: &quot;wishlist&quot;)" style="text;strokeColor=none;fillColor=none;spacingLeft=4;spacingRight=4;overflow=hidden;rotatable=0;points=[[0,0.5],[1,0.5]];portConstraint=eastwest;fontSize=12;whiteSpace=wrap;html=1;" parent="EqOOCHPDBD_nEyYWf1Lx-46" vertex="1">
          <mxGeometry y="116" width="400" height="30" as="geometry" />
        </mxCell>
        <mxCell id="EqOOCHPDBD_nEyYWf1Lx-59" value="+ progress: Number (0-100, Default: 0)" style="text;strokeColor=none;fillColor=none;spacingLeft=4;spacingRight=4;overflow=hidden;rotatable=0;points=[[0,0.5],[1,0.5]];portConstraint=eastwest;fontSize=12;whiteSpace=wrap;html=1;" parent="EqOOCHPDBD_nEyYWf1Lx-46" vertex="1">
          <mxGeometry y="146" width="400" height="30" as="geometry" />
        </mxCell>
        <mxCell id="EqOOCHPDBD_nEyYWf1Lx-60" value="+ rating: Number (1-5, optional)" style="text;strokeColor=none;fillColor=none;spacingLeft=4;spacingRight=4;overflow=hidden;rotatable=0;points=[[0,0.5],[1,0.5]];portConstraint=eastwest;fontSize=12;whiteSpace=wrap;html=1;" parent="EqOOCHPDBD_nEyYWf1Lx-46" vertex="1">
          <mxGeometry y="176" width="400" height="30" as="geometry" />
        </mxCell>
        <mxCell id="EqOOCHPDBD_nEyYWf1Lx-61" value="+ review: String (optional)" style="text;strokeColor=none;fillColor=none;spacingLeft=4;spacingRight=4;overflow=hidden;rotatable=0;points=[[0,0.5],[1,0.5]];portConstraint=eastwest;fontSize=12;whiteSpace=wrap;html=1;" parent="EqOOCHPDBD_nEyYWf1Lx-46" vertex="1">
          <mxGeometry y="206" width="400" height="30" as="geometry" />
        </mxCell>
        <mxCell id="EqOOCHPDBD_nEyYWf1Lx-62" value="+ lastReadAt: Timestamp (Default: now)" style="text;strokeColor=none;fillColor=none;spacingLeft=4;spacingRight=4;overflow=hidden;rotatable=0;points=[[0,0.5],[1,0.5]];portConstraint=eastwest;fontSize=12;whiteSpace=wrap;html=1;" parent="EqOOCHPDBD_nEyYWf1Lx-46" vertex="1">
          <mxGeometry y="236" width="400" height="30" as="geometry" />
        </mxCell>
        <mxCell id="EqOOCHPDBD_nEyYWf1Lx-63" value="+ createAt: Timestamp (Default: now)" style="text;strokeColor=none;fillColor=none;spacingLeft=4;spacingRight=4;overflow=hidden;rotatable=0;points=[[0,0.5],[1,0.5]];portConstraint=eastwest;fontSize=12;whiteSpace=wrap;html=1;" parent="EqOOCHPDBD_nEyYWf1Lx-46" vertex="1">
          <mxGeometry y="266" width="400" height="30" as="geometry" />
        </mxCell>
        <mxCell id="EqOOCHPDBD_nEyYWf1Lx-64" value="+ updateAt: Timestamp (Default: now)" style="text;strokeColor=none;fillColor=none;spacingLeft=4;spacingRight=4;overflow=hidden;rotatable=0;points=[[0,0.5],[1,0.5]];portConstraint=eastwest;fontSize=12;whiteSpace=wrap;html=1;" parent="EqOOCHPDBD_nEyYWf1Lx-46" vertex="1">
          <mxGeometry y="296" width="400" height="30" as="geometry" />
        </mxCell>
        <mxCell id="1kQNGFLsSzydStXp-IKm-1" value="Book" style="swimlane;fontStyle=0;childLayout=stackLayout;horizontal=1;startSize=26;horizontalStack=0;resizeParent=1;resizeParentMax=0;resizeLast=0;collapsible=1;marginBottom=0;align=center;fontSize=14;" vertex="1" parent="1">
          <mxGeometry x="507" width="320" height="510" as="geometry" />
        </mxCell>
        <mxCell id="1kQNGFLsSzydStXp-IKm-2" value="+ _id: String (required)" style="text;strokeColor=none;fillColor=none;spacingLeft=4;spacingRight=4;overflow=hidden;rotatable=0;points=[[0,0.5],[1,0.5]];portConstraint=eastwest;fontSize=12;whiteSpace=wrap;html=1;" vertex="1" parent="1kQNGFLsSzydStXp-IKm-1">
          <mxGeometry y="26" width="320" height="30" as="geometry" />
        </mxCell>
        <mxCell id="1kQNGFLsSzydStXp-IKm-3" value="+ _title: String (required)" style="text;strokeColor=none;fillColor=none;spacingLeft=4;spacingRight=4;overflow=hidden;rotatable=0;points=[[0,0.5],[1,0.5]];portConstraint=eastwest;fontSize=12;whiteSpace=wrap;html=1;" vertex="1" parent="1kQNGFLsSzydStXp-IKm-1">
          <mxGeometry y="56" width="320" height="30" as="geometry" />
        </mxCell>
        <mxCell id="1kQNGFLsSzydStXp-IKm-4" value="+ description: String (optional)" style="text;strokeColor=none;fillColor=none;spacingLeft=4;spacingRight=4;overflow=hidden;rotatable=0;points=[[0,0.5],[1,0.5]];portConstraint=eastwest;fontSize=12;whiteSpace=wrap;html=1;" vertex="1" parent="1kQNGFLsSzydStXp-IKm-1">
          <mxGeometry y="86" width="320" height="30" as="geometry" />
        </mxCell>
        <mxCell id="1kQNGFLsSzydStXp-IKm-5" value="+ coverUrl: String (optional)" style="text;strokeColor=none;fillColor=none;spacingLeft=4;spacingRight=4;overflow=hidden;rotatable=0;points=[[0,0.5],[1,0.5]];portConstraint=eastwest;fontSize=12;whiteSpace=wrap;html=1;" vertex="1" parent="1kQNGFLsSzydStXp-IKm-1">
          <mxGeometry y="116" width="320" height="30" as="geometry" />
        </mxCell>
        <mxCell id="1kQNGFLsSzydStXp-IKm-6" value="+ authorId: String (required)" style="text;strokeColor=none;fillColor=none;spacingLeft=4;spacingRight=4;overflow=hidden;rotatable=0;points=[[0,0.5],[1,0.5]];portConstraint=eastwest;fontSize=12;whiteSpace=wrap;html=1;" vertex="1" parent="1kQNGFLsSzydStXp-IKm-1">
          <mxGeometry y="146" width="320" height="30" as="geometry" />
        </mxCell>
        <mxCell id="1kQNGFLsSzydStXp-IKm-7" value="+&amp;nbsp;release_date : Number" style="text;strokeColor=none;fillColor=none;spacingLeft=4;spacingRight=4;overflow=hidden;rotatable=0;points=[[0,0.5],[1,0.5]];portConstraint=eastwest;fontSize=12;whiteSpace=wrap;html=1;" vertex="1" parent="1kQNGFLsSzydStXp-IKm-1">
          <mxGeometry y="176" width="320" height="30" as="geometry" />
        </mxCell>
        <mxCell id="1kQNGFLsSzydStXp-IKm-8" value="+ avgRating : Number (Default: 0)" style="text;strokeColor=none;fillColor=none;spacingLeft=4;spacingRight=4;overflow=hidden;rotatable=0;points=[[0,0.5],[1,0.5]];portConstraint=eastwest;fontSize=12;whiteSpace=wrap;html=1;" vertex="1" parent="1kQNGFLsSzydStXp-IKm-1">
          <mxGeometry y="206" width="320" height="30" as="geometry" />
        </mxCell>
        <mxCell id="1kQNGFLsSzydStXp-IKm-9" value="+ txtUrl: String (optional)" style="text;strokeColor=none;fillColor=none;spacingLeft=4;spacingRight=4;overflow=hidden;rotatable=0;points=[[0,0.5],[1,0.5]];portConstraint=eastwest;fontSize=12;whiteSpace=wrap;html=1;" vertex="1" parent="1kQNGFLsSzydStXp-IKm-1">
          <mxGeometry y="236" width="320" height="30" as="geometry" />
        </mxCell>
        <mxCell id="1kQNGFLsSzydStXp-IKm-10" value="+ epubUrl: String (optional)" style="text;strokeColor=none;fillColor=none;spacingLeft=4;spacingRight=4;overflow=hidden;rotatable=0;points=[[0,0.5],[1,0.5]];portConstraint=eastwest;fontSize=12;whiteSpace=wrap;html=1;" vertex="1" parent="1kQNGFLsSzydStXp-IKm-1">
          <mxGeometry y="266" width="320" height="30" as="geometry" />
        </mxCell>
        <mxCell id="1kQNGFLsSzydStXp-IKm-11" value="+ bookUrl: String (optional)" style="text;strokeColor=none;fillColor=none;spacingLeft=4;spacingRight=4;overflow=hidden;rotatable=0;points=[[0,0.5],[1,0.5]];portConstraint=eastwest;fontSize=12;whiteSpace=wrap;html=1;" vertex="1" parent="1kQNGFLsSzydStXp-IKm-1">
          <mxGeometry y="296" width="320" height="30" as="geometry" />
        </mxCell>
        <mxCell id="1kQNGFLsSzydStXp-IKm-12" value="+ reviews: [&lt;div&gt;&lt;span style=&quot;white-space: pre;&quot;&gt;&#x9;&lt;/span&gt;{&lt;/div&gt;&lt;div&gt;&lt;span style=&quot;white-space: pre;&quot;&gt;&#x9;&lt;span style=&quot;white-space: pre;&quot;&gt;&#x9;&lt;/span&gt;&lt;/span&gt;userId: String,&lt;br&gt;&lt;/div&gt;&lt;div&gt;&lt;span style=&quot;white-space: pre;&quot;&gt;&#x9;&lt;span style=&quot;white-space: pre;&quot;&gt;&#x9;&lt;/span&gt;&lt;/span&gt;content: String,&lt;br&gt;&lt;/div&gt;&lt;div&gt;&lt;span style=&quot;white-space: pre;&quot;&gt;&#x9;&lt;span style=&quot;white-space: pre;&quot;&gt;&#x9;&lt;/span&gt;&lt;/span&gt;rating: Number,&lt;br&gt;&lt;/div&gt;&lt;div&gt;&lt;span style=&quot;white-space: pre;&quot;&gt;&#x9;&lt;span style=&quot;white-space: pre;&quot;&gt;&#x9;&lt;/span&gt;&lt;/span&gt;createdAt: Timestamp&lt;br&gt;&lt;/div&gt;&lt;div&gt;&lt;span style=&quot;white-space: pre;&quot;&gt;&#x9;&lt;/span&gt;}&lt;br&gt;&lt;div&gt;]&lt;/div&gt;&lt;/div&gt;" style="text;strokeColor=none;fillColor=none;spacingLeft=4;spacingRight=4;overflow=hidden;rotatable=0;points=[[0,0.5],[1,0.5]];portConstraint=eastwest;fontSize=12;whiteSpace=wrap;html=1;" vertex="1" parent="1kQNGFLsSzydStXp-IKm-1">
          <mxGeometry y="326" width="320" height="124" as="geometry" />
        </mxCell>
        <mxCell id="1kQNGFLsSzydStXp-IKm-13" value="+ createdAt: Timestamp (Default: now)" style="text;strokeColor=none;fillColor=none;spacingLeft=4;spacingRight=4;overflow=hidden;rotatable=0;points=[[0,0.5],[1,0.5]];portConstraint=eastwest;fontSize=12;whiteSpace=wrap;html=1;" vertex="1" parent="1kQNGFLsSzydStXp-IKm-1">
          <mxGeometry y="450" width="320" height="30" as="geometry" />
        </mxCell>
        <mxCell id="1kQNGFLsSzydStXp-IKm-14" value="+ updatedAt: Timestamp (Default: null)" style="text;strokeColor=none;fillColor=none;spacingLeft=4;spacingRight=4;overflow=hidden;rotatable=0;points=[[0,0.5],[1,0.5]];portConstraint=eastwest;fontSize=12;whiteSpace=wrap;html=1;" vertex="1" parent="1kQNGFLsSzydStXp-IKm-1">
          <mxGeometry y="480" width="320" height="30" as="geometry" />
        </mxCell>
      </root>
    </mxGraphModel>
  </diagram>
</mxfile>
